<?xml version="1.0" encoding="UTF-8"?><svg id="_レイヤー_2" xmlns="http://www.w3.org/2000/svg" viewBox="0 0 60.62 39.2"><defs><style>.cls-1{fill:#edc0cd;}.cls-1,.cls-2,.cls-3,.cls-4{stroke:#000;stroke-linecap:round;stroke-linejoin:round;}.cls-2,.cls-4{fill:none;}.cls-3{fill:#eaeaea;}.cls-3,.cls-4{stroke-width:2px;}</style></defs><g id="_レイヤー_2-2"><path class="cls-3" d="m1.36,1.7c5.47-.22,10.99.93,15.91,3.33.45.22.91.45,1.41.52.46.07.93-.01,1.38-.09,6.75-1.14,13.92-2.47,20.25.14.54.22,1.08.48,1.67.48.72,0,1.38-.36,2.01-.71,4.56-2.5,9.62-4.24,14.82-4.37,1.6,4.84.61,10.17-1.04,15-.31.91-.65,1.84-.7,2.8-.04.83.13,1.66.25,2.48.34,2.36.25,4.79-.28,7.11-.31,1.35-.77,2.69-1.56,3.82-1.77,2.51-4.88,3.66-7.87,4.38-6.79,1.64-13.86,1.78-20.84,1.46-4.66-.21-9.4-.66-13.66-2.56-1.71-.76-3.33-1.76-4.65-3.09-2.92-2.92-4.08-7.41-3.16-11.41.2-.87.91-1.95.58-2.8s-1.43-1.78-1.94-2.6c-1.19-1.92-2.04-4.04-2.51-6.25-.53-2.51-.57-5.14-.06-7.66Z"/><path class="cls-4" d="m16.56,18.59c.95,1.63,2.66,2.78,4.52,3.05s3.83-.36,5.2-1.65"/><path class="cls-4" d="m35.54,19.71c.58.85,1.6,1.34,2.62,1.45s2.06-.1,3.04-.44c1.38-.47,2.68-1.16,3.84-2.04"/><path class="cls-1" d="m28.42,24.33l4.03.36c.26.02.59.1.65.35.04.18-.07.35-.18.5-.32.45-.66.91-1.13,1.2s-1.11.38-1.56.06c-.26-.19-.42-.48-.6-.74-.4-.58-.94-1.07-1.56-1.41"/><path class="cls-2" d="m25.52,28.99c1.54,1.42,4.24,1.31,5.65-.24,1.03,1.54,3.31,2.07,4.91,1.14"/></g></svg>