<?xml version="1.0" encoding="UTF-8"?><svg id="_レイヤー_2" xmlns="http://www.w3.org/2000/svg" viewBox="0 0 19.34 20.84"><defs><style>.cls-1{fill:#232323;stroke-width:0px;}</style></defs><g id="_レイヤー_2-2"><path class="cls-1" d="m8.62,0c.61.79,1.23,1.59,2.05,2.15,1.48,1,3.39,1.05,5.1,1.58.38.12.75.26,1.05.52.27.23.46.54.62.85.43.83.68,1.76.74,2.69.04.74-.04,1.49.06,2.22s.44,1.49,1.09,1.84c-.39.21-.88.14-1.26-.07s-.69-.54-.99-.87c-1.62-1.76-3.27-3.49-4.95-5.19-.44-.44-.94-.91-1.56-.95-.09,0-.19,0-.26.06-.08.06-.11.17-.13.28-.19.92-.14,1.87-.07,2.8.17,2.52.39,5.04.67,7.56.09.86.19,1.76-.05,2.59-.38,1.28-1.56,2.23-2.86,2.58s-2.68.19-3.97-.16c-.59-.16-1.17-.37-1.69-.69-.73-.45-1.31-1.11-1.73-1.85-.49-.87-.74-2.04-.1-2.81.33-.39.82-.6,1.31-.73,1.81-.49,3.82-.17,5.38.87.22.15.44.31.7.38s.57.03.73-.17c.11-.13.14-.3.17-.47.31-1.81.62-3.73.36-5.55-.28-2.02-.44-4.05-.47-6.08,0-.58,0-1.15,0-1.73,0-.29.22-1.43.06-1.64Z"/></g></svg>