<?xml version="1.0" encoding="UTF-8"?><svg id="_レイヤー_2" xmlns="http://www.w3.org/2000/svg" viewBox="0 0 80.19 54.78"><defs><style>.cls-1{fill:none;}.cls-1,.cls-2{stroke:#000;stroke-linecap:round;stroke-linejoin:round;}.cls-2{fill:#abb7c6;stroke-width:2px;}</style></defs><g id="_レイヤー_2-2"><path class="cls-2" d="m52.97,3.53c1.55,5.67.2,12.06-3.52,16.62-3.37-1.02-6.31-3.41-8.01-6.5-7.66,5.04-17.15,6.31-26.3,6.8-2.69.14-5.43.22-8.01-.56s-4.99-2.58-5.82-5.13c-1.09-3.32.78-7.04,3.57-9.13s6.31-2.91,9.74-3.58c2.49-.49,4.99-.93,7.53-1.03,5.78-.23,10.52,1.61,15.62,4.01,3.69,1.74,2.72,1.58,6.55.28,2.9-.98,5.51-1.88,8.65-1.78Z"/><path class="cls-1" d="m9,8.48c1.68,1.4,3.59,2.52,5.63,3.31"/><path class="cls-1" d="m9.38,12.95c1.01-1.61,2.02-3.22,3.03-4.83"/><path class="cls-2" d="m79.17,38.36c.25,5.88-2.49,11.8-7.13,15.42-3.06-1.75-5.39-4.73-6.36-8.11-8.58,3.21-18.12,2.34-27.15.78-2.65-.46-5.35-.99-7.68-2.33-2.34-1.33-4.29-3.62-4.54-6.3-.32-3.47,2.32-6.69,5.51-8.11s6.8-1.43,10.29-1.32c2.53.08,5.07.21,7.56.67,5.68,1.07,9.89,3.91,14.34,7.38,3.22,2.51,2.3,2.14,6.33,1.73,3.05-.31,5.79-.6,8.83.19Z"/><path class="cls-1" d="m35.2,33.41c1.33,1.74,2.94,3.26,4.75,4.48"/><path class="cls-1" d="m34.58,37.86l4.03-4.04"/></g></svg>