<?xml version="1.0" encoding="UTF-8"?><svg id="_レイヤー_2" xmlns="http://www.w3.org/2000/svg" viewBox="0 0 73.23 49.55"><defs><style>.cls-1{fill:#288e5d;}.cls-1,.cls-2{stroke:#000;stroke-linecap:round;stroke-linejoin:round;stroke-width:2px;}.cls-2{fill:#a56f4a;}.cls-3{font-family:AlternateGotNo3D, 'Alternate Gothic No3 D';font-size:17.44px;letter-spacing:.02em;}</style></defs><g id="_レイヤー_2-2"><path class="cls-1" d="m6.59,18.13c-.56.76-.77,1.71-.98,2.62-.48,2.16-.97,4.31-1.45,6.47-1.01,4.49-2.02,8.97-3.02,13.46-.11.48-.21,1-.03,1.46.27.67,1.04.96,1.72,1.17,5.29,1.65,10.68,2.98,16.13,3.99,4.48.83,9.03,1.45,13.58,1.2,4.51-.24,8.94-1.33,13.42-1.91,8.49-1.1,17.61-.5,25.02-4.8.35-.2.71-.43.93-.77.26-.4.29-.91.3-1.39.18-7.53-2.8-14.75-5.82-21.65-.47-1.08-1.04-2.25-2.12-2.7-.54-.23-1.15-.24-1.73-.25-15.1-.27-30.22.16-45.28,1.3-2.14.16-4.27.34-6.4.53-1.47.13-3.29-.08-4.27,1.27Z"/><path class="cls-2" d="m13.58,7.37c1.49-1.92,4.22-2.78,6.54-2.05-.84-1.24-.3-3.18,1.06-3.81s3.18.2,3.6,1.64c3.29-2.69,8.38-2.87,11.87-.44,2.16-2.25,6.6-1.29,7.65,1.65,1.77-.99,4.06-1.25,5.79-.19s2.49,3.64,1.24,5.23c1.38-.58,3-.93,4.34-.26s1.94,2.75.79,3.7c2.18-.26,4.41,0,6.47.78,1.08,1.4.46,3.57-.88,4.73s-3.16,1.55-4.9,1.85c-15.16,2.59-30.69.99-45.98-.62-.55-.06-1.14-.13-1.57-.49-.43-.36-.61-.94-.65-1.5-.19-2.78,2.21-2.55,3.11-4.33s.06-4.01,1.53-5.89Z"/><text class="cls-3" transform="translate(19.34 39.95)"><tspan x="0" y="0">FOOD</tspan></text></g></svg>