<?xml version="1.0" encoding="UTF-8"?><svg id="_レイヤー_2" xmlns="http://www.w3.org/2000/svg" viewBox="0 0 44.98 56.56"><defs><style>.cls-1{font-family:AlternateGotNo3D, 'Alternate Gothic No3 D';font-size:7.76px;letter-spacing:.03em;}.cls-2{fill:#efe17b;}.cls-2,.cls-3{stroke:#000;stroke-miterlimit:10;}.cls-3{fill:none;}.cls-4{fill:#e0ca46;stroke-width:0px;}</style></defs><g id="_レイヤー_2-2"><path class="cls-2" d="m7.1,2.49C17.04.91,27.13.27,37.19.58c-.13,4.04,1.51,7.89,2.84,11.7,4.59,13.17,5.66,27.56,3.07,41.26-.1.52-.23,1.08-.63,1.42-.37.31-.9.36-1.38.39-12.61.86-25.28.93-37.9.22-.73-8.04-1.47-16.08-2.2-24.12-.45-4.93-1.24-10.64,1.27-15.13,1.4-2.5,3.71-4.45,4.92-7.07.33-.7,1.93-7.1-.08-6.78Z"/><path class="cls-3" d="m11.92,8.45c7.53-.52,15.03-1.52,22.43-3.01"/><path class="cls-3" d="m8.18,14.27c.74-.09,1.15.82,1.32,1.54,2.74,11.88,3.93,24.12,3.53,36.3"/><path class="cls-3" d="m6.86,16.21c-1.35,2.19-2.38,4.58-3.04,7.07"/><path class="cls-4" d="m19.3,17.9c.06-.19.14-.4.32-.5.19-.09.41-.03.61.06.62.26,1.2.64,1.68,1.11.37.36.72.79,1.2.98.37.15.78.15,1.18.15,1.98-.02,3.96-.04,5.94-.06.27,0,.55-.01.77-.16.22-.15.33-.41.45-.65.55-1.15,1.47-2.13,2.59-2.74-.22,1,.24,2.02.85,2.84s1.38,1.51,1.93,2.38c.82,1.31,1.05,2.92.91,4.46-.06.67-.19,1.34-.51,1.92-.37.67-.96,1.2-1.61,1.61-2.37,1.53-5.35,1.69-8.18,1.68-1.64,0-3.3-.05-4.87-.53s-3.05-1.44-3.83-2.88c-.83-1.54-.29-2.85-.09-4.44.23-1.78.11-3.48.66-5.23Z"/><text class="cls-1" transform="translate(23.31 39.14)"><tspan x="0" y="0">DRY</tspan><tspan x="-1.62" y="7.76">FOOD</tspan></text></g></svg>