<?xml version="1.0" encoding="UTF-8"?><svg id="_レイヤー_2" xmlns="http://www.w3.org/2000/svg" viewBox="0 0 135.22 161.55"><defs><style>.cls-1{fill:none;stroke:#000;stroke-linecap:round;stroke-linejoin:round;stroke-width:3px;}</style></defs><g id="_レイヤー_1-2"><path class="cls-1" d="m17.54,56.1c-7.04.59-13.62-5.09-15.5-11.9s1.45-14.55,5.31-20.47c-2.04-7-1.64-14.68,1.12-21.43,6.09,1.52,12.87,3.56,15.84,9.09,7.79-3.5,17.34-2.77,24.5,1.89,1.58-4.15,4.42-7.8,8.04-10.37,1.72-1.22,4.28-2.12,5.77-.63.61.61.86,1.47,1.08,2.3,1.28,4.93,2.02,10,2.19,15.09,5.02,5.2,6.7,14.09,5.8,21.26-.49,3.96-1.61,7.96-4.08,11.09-2.47,3.13-6.5,5.24-10.44,4.6"/><path class="cls-1" d="m12.97,58.68C4.41,77.56,3.34,98.85,2.4,119.56c-.28,6.13-.52,12.46,1.66,18.19,4.76,12.51,19.2,18.15,32.34,20.7,9.38,1.82,19.4,2.75,28.23-.9s15.86-13.17,13.77-22.5c13.36-.3,26.55-5.5,36.52-14.4,9.97-8.9,16.62-21.42,18.43-34.66.71-5.19.61-10.79-2.13-15.25-.86-1.4-2.14-2.74-3.77-2.86-2.34-.16-4.03,2.16-4.99,4.3-2.19,4.89-3.14,10.24-4.85,15.33-6.02,17.97-22.07,32.2-40.63,36.02-1.68-11.24-.82-22.71-1.82-34.04-.89-9.97-4.31-29.85-16.38-31.82"/></g></svg>