<?xml version="1.0" encoding="UTF-8"?><svg id="_レイヤー_2" xmlns="http://www.w3.org/2000/svg" viewBox="0 0 214.64 94.44"><defs><style>.cls-1{fill:none;stroke:#000;stroke-linecap:round;stroke-linejoin:round;stroke-width:3px;}</style></defs><g id="_レイヤー_2-2"><path class="cls-1" d="m31.81,3.98c4.98-.72,10.17.06,14.73,2.21,1.21.57,2.42,1.25,3.75,1.4,1.52.17,3.02-.36,4.5-.74,4.45-1.16,9.23-1.05,13.62.32,1.51.47,3.04,1.09,4.61.89,1.57-.2,2.91-1.19,4.24-2.05,3.92-2.52,8.44-4.08,13.08-4.51.5,5.99.38,12.04-.36,18.01,16.19-6.79,33.88-13.7,50.84-9.16,2.88.77,5.68,1.87,8.61,2.47,8.33,1.71,16.87-.68,25.18-2.5,9.68-2.12,19.53-3.47,29.42-4.03,2.39-.14,4.95-.18,6.97,1.11s2.98,4.45,1.26,6.11c-.92.89-2.28,1.1-3.56,1.19-9.57.68-17.92-1.74-28.51.98-4.07,1.04-6.54,2.65-10.41,4.28-5.7,2.4-12.68,3.6-18.74,2.36,7.35,9.31,4.65,23.65,11.54,33.3,3.48,4.87,8.92,7.86,13.69,11.48s13.52,13.85,9.23,14.63c-16.71-4.78-39.71-25.78-49.71-26.78.47,8.14,3.27,18.22,3.74,26.36.15,2.63-.57,6.24-3.2,6.21-1.22-.01-2.23-.93-3.02-1.86-6.14-7.29-5.93-18.22-11.35-26.06-.66-.95-1.43-1.88-2.48-2.38-1.24-.59-2.68-.51-4.05-.41-7.76.55-15.53,1.1-23.29,1.66-5.13,4.93-7.68,10.19-13.35,14.49-2.41,1.83-5.22,5.07-7.81,6.63-7.25,4.37-12.96,12.04-21.34,13.27-.9.13-1.87.17-2.65-.28-1.31-.76-1.56-2.65-.97-4.04s1.8-2.42,2.94-3.41c8-7.02,19.96-22.42,24.83-32.15-6,12-13.98,8.87-18.46,8.54-1.53-.11-3.07-.31-4.6-.19-1.81.15-3.55.75-5.27,1.3-4.28,1.38-8.63,2.52-12.98,3.67-8.09,2.13-16.19,4.26-24.28,6.39-2.39.63-5.73.8-6.53-1.54-.82-2.38,2-4.29,4.29-5.32,12.65-5.67,24.03-14.16,33.06-24.68.77-.89,1.56-1.91,1.53-3.08-.03-1.37-1.14-2.42-2-3.48-3.95-4.88-.66-9.31-2.04-14.03-.77-2.62-2.85-4.99-3.65-7.76s-1.18-5.84-1.02-8.8Z"/></g></svg>